<svg width="982" height="221" viewBox="0 0 982 221" fill="none" xmlns="http://www.w3.org/2000/svg">
<path d="M46.0244 219.988C32.1225 219.988 20.8342 216.155 12.2466 208.477C-4.81653 193.234 -4.03245 164.988 14.4495 128.951C43.7468 71.8608 120.736 -7.19232 170.009 3.75791C178.373 5.62443 184.77 11.0622 187.993 19.0882C195.025 36.5713 186.126 65.0294 174.191 82.9355L157.626 71.8857C167.47 57.1278 173.133 35.5011 169.524 26.5045C168.727 24.526 167.694 23.6301 165.703 23.1821C150.631 19.8348 125.441 31.9299 98.3215 55.5226C71.7996 78.6052 46.46 110.224 32.1847 138.048C18.6313 164.465 16.1421 185.245 25.5262 193.645C53.6661 218.793 140.326 165.05 168.466 144.244L180.314 160.247C179.107 161.143 150.469 182.234 116.268 199.17C88.228 213.057 64.7553 220 46.0369 220L46.0244 219.988Z" fill="white"/>
<path d="M240.987 220C237.976 220 235.001 219.714 232.051 219.154C220.191 216.889 211.454 210.12 206.774 199.568C197.004 177.543 204.994 139.155 231.193 82.2014C249.749 41.8597 270.447 7.77716 271.33 6.34616L288.331 16.7115C256.806 68.4514 211.74 161.653 224.982 191.505C226.998 196.059 230.334 198.56 235.798 199.593C237.465 199.916 239.183 200.066 240.925 200.066C265.481 200.066 297.454 168.745 331.717 110.821C361.276 60.8484 382.297 8.362 382.508 7.83937L401.015 15.2059C400.144 17.3959 379.285 69.4842 348.967 120.776C310.012 186.689 273.732 219.988 240.987 220Z" fill="white"/>
<path d="M412.092 219.938C400.268 219.938 390.349 217.947 382.371 213.94C370.187 207.83 362.309 196.992 359.571 182.57C354.057 153.54 381.226 127.197 440.319 104.276C443.48 103.057 446.641 101.874 449.778 100.73C441.551 98.9004 434.034 96.0509 428.072 91.8077C420.181 86.1957 415.315 78.4061 414.021 69.2851C412.142 56.0328 415.825 43.8382 424.674 34.0204C438.489 18.69 465.086 8.63574 503.705 4.13121C531.384 0.89592 555.056 1.74207 556.052 1.7794L555.305 21.6765C530.364 20.7556 460.892 23.5679 439.46 47.3597C434.494 52.8722 432.677 58.957 433.747 66.4853C434.283 70.2183 436.137 73.1052 439.609 75.5814C458.054 88.6968 507.289 82.7489 524.701 79.3518C530.065 78.3066 535.292 81.7907 536.375 87.1663C537.458 92.5419 533.986 97.7681 528.621 98.8756C476.922 109.54 372.352 143.137 379.135 178.874C380.741 187.311 384.599 192.799 391.295 196.158C404.537 202.791 441.339 206.81 539.076 159.139L547.813 177.033C489.243 205.603 443.804 219.95 412.092 219.95V219.938Z" fill="white"/>
<path d="M560.283 220C558.404 220 556.5 219.465 554.807 218.357C550.439 215.471 549.045 209.697 551.621 205.143L664.094 6.37106L681.43 16.1765L622.861 119.693C627.13 114.965 631.486 110.212 635.941 105.446C698.606 38.2511 746.522 3.32241 778.333 1.61766C790.318 0.983047 800.698 4.90273 808.352 12.991C812.148 16.9978 816.367 24.4389 814.911 37.1312C811.402 67.7172 777.188 112.464 737.026 139.006C702.028 162.138 664.492 172.939 644.23 177.468C656.614 191.393 688.077 211.402 759.291 187.846L765.551 206.748C716.988 222.812 677.722 222.638 648.847 206.213C626.171 193.309 618.89 174.756 618.592 173.972C617.509 171.135 617.783 167.962 619.339 165.348C620.894 162.735 623.545 160.981 626.557 160.57C627.08 160.495 679.837 152.942 726.048 122.394C756.902 102.011 792.011 61.9683 795.122 34.8665C795.571 30.9717 795.122 27.9853 793.878 26.6912C790.219 22.8213 785.601 21.1912 779.391 21.5147C744.667 23.3812 683.783 83.3462 650.59 118.922C605.586 167.153 568.572 215.62 568.199 216.105C566.245 218.669 563.283 220.025 560.271 220.025L560.283 220Z" fill="white"/>
<path d="M841.595 219.988C838.421 219.988 835.297 219.701 832.223 219.117C820.362 216.852 811.626 210.083 806.946 199.531C797.176 177.506 805.166 139.118 831.364 82.164C849.921 41.8224 870.618 7.73983 871.502 6.30884L888.503 16.6742C856.978 68.414 811.912 161.615 825.154 191.467C827.17 196.021 830.506 198.523 835.969 199.555C837.899 199.929 839.865 200.103 841.856 200.103C885.69 200.103 944.086 113.857 958.125 56.6301C962.966 36.8699 961.796 22.8088 955.125 20.8054C946.002 18.0554 930.918 21.9502 918.448 41.9593C906.512 61.1097 902.368 89.0577 917.539 105.396L902.953 118.947C879.953 94.172 886.101 56.2195 901.559 31.4321C916.954 6.74436 939.668 -4.62895 960.875 1.7421C971.74 5.01472 988.33 17.0973 977.478 61.3711C969.351 94.4955 947.869 136.131 922.741 167.439C895.261 201.683 866.835 219.988 841.607 219.988H841.595Z" fill="white"/>
</svg>
