<svg width="1124" height="215" viewBox="0 0 1124 215" fill="none" xmlns="http://www.w3.org/2000/svg">
<g clip-path="url(#clip0_374_422)">
<path d="M245.34 120.79C174.74 164.63 89.95 192.68 50.3 192.68C25.8 192.68 19.35 185.27 19.35 172.05C19.35 123.37 106.07 24.07 152.5 24.07C156.05 24.07 159.27 25.36 159.27 32.13C159.27 38.9 156.05 51.15 148.31 68.24C146.05 73.08 147.99 78.88 152.82 81.14C157.65 83.4 163.46 81.46 165.72 76.63C174.75 57.93 178.62 43.42 178.62 32.14C178.62 15.38 167.01 4.73999 152.51 4.73999C93.17 4.72999 0 114.02 0 172.05C0 201.39 20.96 212.03 50.29 212.03C95.75 212.03 182.79 182.37 255.65 136.91C260.16 134.33 261.45 128.21 258.55 123.69C255.97 119.18 249.84 117.89 245.33 120.79H245.34Z" fill="white"/>
<path d="M631.59 81.13C636.42 83.39 642.23 81.45 644.49 76.62C652.55 59.86 657.39 45.03 657.39 33.1C657.39 10.21 639.66 4.72998 625.15 4.72998C584.53 4.72998 499.42 51.48 499.42 84.68C499.42 95.64 507.8 114.66 535.85 128.52C537.14 129.16 537.14 130.45 535.85 131.42C534.24 132.71 530.05 135.93 519.73 143.35C500.39 157.21 482.33 172.37 482.33 188.16C482.33 203.95 497.48 212.02 514.57 212.02C550.43 212.02 597.74 201.01 649.72 178.88C654.43 176.88 656.76 171.54 655.07 166.72C653.21 161.43 647.28 158.79 642.12 160.98C591.56 182.47 546.45 192.68 514.57 192.68C502.32 192.68 501.67 189.13 501.67 188.17C501.67 185.11 506.33 180.3 507.9 178.44C508.05 178.26 508.2 178.09 508.36 177.92C518.39 167.35 535.62 155.86 546.81 147.54C553.26 142.7 556.8 136.58 556.8 129.49C556.8 122.4 552.29 115.95 545.84 111.76C522.95 97.58 518.76 87.58 518.76 84.03C518.76 70.17 587.11 24.07 625.15 24.07C634.82 24.07 638.05 26.33 638.05 33.1C638.05 39.87 634.5 52.44 627.09 68.24C624.83 73.08 626.77 78.88 631.6 81.14L631.59 81.13Z" fill="white"/>
<path d="M1123.9 137.83C1123.13 132.36 1117.95 128.64 1112.52 129.65C1091.84 133.52 1070.32 136.91 1059.35 136.91C1049.03 136.91 1043.55 134.01 1037.1 128.85C1052.9 99.8301 1059.99 76.95 1059.99 59.21C1059.99 40.19 1055.15 26.33 1040.65 26.33C1013.57 26.33 998.74 53.41 998.74 77.27C998.74 93.39 1002.93 114.34 1013.57 130.79C988.42 169.48 956.19 192.69 937.81 192.69C930 192.69 923.1 188.45 922.68 171.47C922.96 171.32 923.22 171.18 923.5 171.03L922.82 165.44C924.94 131.59 951.16 75 1005.19 16.02C1008.74 12.15 1008.41 6.03004 1004.54 2.48004C1000.67 -1.06996 994.55 -0.739959 991 3.12004C935.99 62.86 908.13 120.69 903.9 159.71C857.58 183.99 826.3 192.68 793.75 192.68C776.66 192.68 761.51 185.59 749.91 173.01C823.09 151.73 908.85 101.76 908.85 31.8C908.85 17.62 900.79 4.40004 883.38 4.40004C862.1 4.40004 820.84 17.62 768.61 68.55C760.23 76.93 751.52 85.96 741.53 98.21L785.37 18.9C789.56 11.48 783.11 4.07004 776.02 4.72004C736.5 8.69004 707.38 12.16 681.63 18.59C676.48 19.88 673.36 25.12 674.66 30.26C675.97 35.47 681.31 38.6 686.49 37.18C706.66 31.65 721.91 29.81 759.9 25.67L664.47 200.4C661.89 204.91 663.5 210.72 668.02 213.29C672.21 215.87 678.01 214.58 680.92 210.07C778.28 56.3101 855.98 23.75 882.41 23.75C887.57 23.75 889.5 27.94 889.5 31.81C889.5 92.1 805.36 139.81 730.56 158.19C724.11 159.8 720.89 167.54 724.76 173.02C740.23 195.59 764.41 212.03 793.75 212.03C828.13 212.03 860.21 203.29 904.23 181.15C907.26 199.07 917.95 212.03 937.81 212.03C966.18 212.03 1001 184.3 1027.11 145.62C1035.49 152.07 1046.45 156.26 1059.35 156.26C1072.25 156.26 1095.12 152.69 1116.12 148.7C1121.19 147.73 1124.61 142.96 1123.9 137.84V137.83ZM1024.86 110.79C1020.02 100.47 1018.09 89.19 1018.09 76.62C1018.09 59.53 1029.37 45.99 1038.08 45.99C1039.69 45.99 1041.63 48.25 1040.98 60.5C1040.66 69.85 1035.82 90.48 1024.86 110.79Z" fill="white"/>
<path d="M467.74 172.7C464.97 167.85 458.77 166.2 453.97 169.06C439.56 177.64 410.15 193.4 389.77 192.68C387.19 192.59 389.13 188.81 389.45 188.17L449.74 66.6301C452 62.4401 450.39 56.9601 446.19 54.3801C441.99 51.8001 436.52 52.4501 433.62 56.3101C369.46 138.2 314.98 192.68 295.96 192.68C295.32 192.68 294.03 192.04 294.03 188.49C294.03 161.09 325.95 92.7401 369.79 19.2401C371.4 16.3401 371.4 12.4701 369.47 9.25005C367.54 6.35005 364.31 4.42005 360.44 4.74005C296.93 9.90005 249.22 21.5001 203.44 36.9801C198.6 38.5901 195.7 44.0701 197.64 49.2301C199.25 54.0701 204.73 56.6501 209.57 55.0301C249.87 41.8101 290.81 31.5001 343.36 25.6901C305.64 92.7501 274.69 154 274.69 186.56C274.69 202.03 283.07 212.03 295.65 212.03C316.61 212.03 348.84 184.63 385.6 143.36C389.47 139.17 393.66 134.66 397.85 128.85L372.06 179.46C369.77 183.72 368.81 187.98 368.84 192.24C368.92 203.23 378.14 212.07 389.13 212.02C416.99 211.9 449.23 195.05 464.16 186.27C468.87 183.5 470.48 177.45 467.77 172.7H467.74Z" fill="white"/>
</g>
<defs>
<clipPath id="clip0_374_422">
<rect width="1124" height="214.63" fill="white"/>
</clipPath>
</defs>
</svg>
