<?xml version="1.0" encoding="UTF-8"?>
<svg id="Layer_1" xmlns="http://www.w3.org/2000/svg" version="1.1" viewBox="0 0 979 221">
  <!-- Generator: Adobe Illustrator 29.5.1, SVG Export Plug-In . SVG Version: 2.1.0 Build 141)  -->
  <defs>
    <style>
      .st0 {
        fill: #fff;
      }
    </style>
  </defs>
  <path class="st0" d="M17,57v105.71H4V57h13Z"/>
  <path class="st0" d="M100.55,102.21c3.24-6.05,7.69-10.74,13.36-14.07,5.66-3.33,11.97-5,18.93-5s12.81,1.48,17.86,4.43c5.05,2.95,8.81,6.67,11.28,11.14v-14.28h13.14v78.28h-13.14v-14.57c-2.57,4.57-6.41,8.36-11.5,11.36-5.1,3-11.02,4.5-17.78,4.5s-13.24-1.71-18.86-5.14c-5.62-3.43-10.05-8.24-13.29-14.43-3.24-6.19-4.86-13.24-4.86-21.14s1.62-15.02,4.86-21.07ZM158.4,108c-2.38-4.38-5.6-7.74-9.64-10.07-4.05-2.33-8.5-3.5-13.36-3.5s-9.29,1.14-13.28,3.43c-4,2.29-7.19,5.62-9.57,10-2.38,4.38-3.57,9.52-3.57,15.43s1.19,11.21,3.57,15.64c2.38,4.43,5.57,7.81,9.57,10.14,4,2.33,8.43,3.5,13.28,3.5s9.31-1.17,13.36-3.5c4.05-2.33,7.26-5.71,9.64-10.14,2.38-4.43,3.57-9.59,3.57-15.5s-1.19-11.05-3.57-15.43Z"/>
  <path class="st0" d="M327.54,84.43v78.28h-13v-11.57c-2.48,4-5.93,7.12-10.36,9.36-4.43,2.24-9.31,3.36-14.64,3.36-6.1,0-11.57-1.26-16.43-3.79-4.86-2.52-8.69-6.31-11.5-11.36-2.81-5.05-4.21-11.19-4.21-18.43v-45.85h12.86v44.14c0,7.71,1.95,13.64,5.86,17.78,3.9,4.14,9.24,6.21,16,6.21s12.43-2.14,16.43-6.43c4-4.29,6-10.52,6-18.71v-43h13Z"/>
  <path class="st0" d="M433.15,86.72c4.24-2.48,9.4-3.71,15.5-3.71v13.43h-3.43c-14.57,0-21.86,7.91-21.86,23.71v42.57h-13v-78.28h13v12.71c2.29-4.48,5.55-7.95,9.79-10.43Z"/>
  <path class="st0" d="M593.69,128.43h-62.57c.48,7.71,3.12,13.74,7.93,18.07,4.81,4.33,10.64,6.5,17.5,6.5,5.62,0,10.31-1.31,14.07-3.93,3.76-2.62,6.4-6.12,7.93-10.5h14c-2.1,7.52-6.29,13.64-12.57,18.36-6.29,4.71-14.1,7.07-23.43,7.07-7.43,0-14.07-1.66-19.93-5-5.86-3.33-10.45-8.07-13.78-14.21-3.33-6.14-5-13.26-5-21.36s1.62-15.19,4.86-21.28c3.24-6.09,7.79-10.78,13.64-14.07,5.86-3.29,12.59-4.93,20.21-4.93s14,1.62,19.71,4.86c5.71,3.24,10.12,7.69,13.21,13.36,3.09,5.67,4.64,12.07,4.64,19.21,0,2.48-.14,5.1-.43,7.86ZM577.41,105.07c-2.19-3.57-5.17-6.29-8.93-8.14-3.76-1.86-7.93-2.79-12.5-2.79-6.57,0-12.17,2.1-16.78,6.29-4.62,4.19-7.26,10-7.93,17.43h49.42c0-4.95-1.1-9.21-3.29-12.78Z"/>
  <path class="st0" d="M685.67,57v105.71h-13V57h13Z"/>
  <path class="st0" d="M840.21,128.43h-62.57c.48,7.71,3.12,13.74,7.93,18.07,4.81,4.33,10.64,6.5,17.5,6.5,5.62,0,10.31-1.31,14.07-3.93,3.76-2.62,6.4-6.12,7.93-10.5h14c-2.1,7.52-6.29,13.64-12.57,18.36-6.29,4.71-14.1,7.07-23.43,7.07-7.43,0-14.07-1.66-19.93-5-5.86-3.33-10.45-8.07-13.78-14.21-3.33-6.14-5-13.26-5-21.36s1.62-15.19,4.86-21.28c3.24-6.09,7.79-10.78,13.64-14.07,5.86-3.29,12.59-4.93,20.21-4.93s14,1.62,19.71,4.86c5.71,3.24,10.12,7.69,13.21,13.36,3.09,5.67,4.64,12.07,4.64,19.21,0,2.48-.14,5.1-.43,7.86ZM823.93,105.07c-2.19-3.57-5.17-6.29-8.93-8.14-3.76-1.86-7.93-2.79-12.5-2.79-6.57,0-12.17,2.1-16.78,6.29-4.62,4.19-7.26,10-7.93,17.43h49.42c0-4.95-1.1-9.21-3.29-12.78Z"/>
  <path class="st0" d="M930.29,160.92c-4.76-2.05-8.52-4.9-11.28-8.57-2.76-3.67-4.29-7.88-4.57-12.64h13.43c.38,3.91,2.21,7.1,5.5,9.57,3.29,2.48,7.59,3.71,12.93,3.71,4.95,0,8.86-1.09,11.71-3.29,2.86-2.19,4.29-4.95,4.29-8.29s-1.52-5.97-4.57-7.64c-3.05-1.66-7.76-3.31-14.14-4.93-5.81-1.52-10.55-3.07-14.21-4.64-3.67-1.57-6.81-3.9-9.43-7-2.62-3.09-3.93-7.16-3.93-12.21,0-4,1.19-7.66,3.57-11,2.38-3.33,5.76-5.98,10.14-7.93,4.38-1.95,9.38-2.93,15-2.93,8.66,0,15.66,2.19,21,6.57,5.33,4.38,8.19,10.38,8.57,18h-13c-.29-4.09-1.93-7.38-4.93-9.86-3-2.48-7.02-3.71-12.07-3.71-4.67,0-8.38,1-11.14,3-2.76,2-4.14,4.62-4.14,7.86,0,2.57.83,4.69,2.5,6.36,1.66,1.67,3.76,3,6.29,4,2.52,1,6.02,2.12,10.5,3.36,5.62,1.52,10.19,3.02,13.71,4.5,3.52,1.48,6.55,3.69,9.07,6.64,2.52,2.95,3.83,6.81,3.93,11.57,0,4.29-1.19,8.14-3.57,11.57-2.38,3.43-5.74,6.12-10.07,8.07-4.33,1.95-9.31,2.93-14.93,2.93-6,0-11.38-1.02-16.14-3.07Z"/>
</svg>