<svg width="977" height="219" viewBox="0 0 977 219" fill="none" xmlns="http://www.w3.org/2000/svg">
<g clip-path="url(#clip0_376_652)">
<path d="M45.8367 218.975C31.9915 218.975 20.7492 215.16 12.1967 207.518C-4.79691 192.345 -4.01603 164.228 14.3906 128.358C43.5684 71.5301 120.244 -7.14685 169.316 3.7406C177.645 5.58614 184.016 11.0113 187.227 19.0004C194.23 36.4029 185.367 64.7301 173.481 82.5538C170.444 87.1119 164.284 88.3382 159.735 85.3036C155.173 82.269 153.946 76.113 156.983 71.5673C166.775 56.8773 172.427 35.3501 168.82 26.3949C168.027 24.4255 166.998 23.5337 165.015 23.0878C150.004 19.7559 124.917 31.7829 97.9082 55.2795C71.4944 78.2558 46.2582 109.729 32.0411 137.425C18.5429 163.72 16.0639 184.405 25.4097 192.766C53.4349 217.786 139.741 164.303 167.767 143.593C172.167 140.335 178.377 141.264 181.637 145.661C184.896 150.058 183.967 156.264 179.567 159.522C178.364 160.413 149.843 181.408 115.782 198.266C87.8558 212.088 64.4788 219 45.8367 219V218.975Z" fill="white"/>
<path d="M240.005 219C237.005 219 234.043 218.715 231.105 218.158C219.293 215.903 210.591 209.165 205.931 198.662C196.201 176.738 204.158 138.527 230.25 81.8355C248.731 41.6795 269.344 7.75374 270.224 6.32933C273.075 1.65974 279.173 0.173397 283.846 3.02222C288.519 5.87104 290.006 11.965 287.156 16.6346C255.759 68.1364 210.877 160.909 224.065 190.623C226.073 195.157 229.395 197.646 234.836 198.674C236.497 198.996 238.208 199.145 239.943 199.145C264.398 199.145 296.241 167.969 330.365 110.311C359.803 60.5684 380.738 8.3235 380.949 7.80328C382.981 2.72495 388.745 0.235328 393.827 2.26666C398.909 4.28561 401.4 10.0576 399.368 15.1359C398.5 17.3159 377.726 69.1644 347.532 120.22C308.735 185.83 272.604 218.975 239.992 218.988L240.005 219Z" fill="white"/>
<path d="M410.399 218.926C398.623 218.926 388.745 216.944 380.799 212.955C368.665 206.874 360.819 196.086 358.092 181.73C352.601 152.833 379.659 126.611 438.511 103.796C441.659 102.582 444.807 101.406 447.931 100.266C439.738 98.4453 432.251 95.6088 426.301 91.3852C418.443 85.799 413.609 78.0452 412.32 68.9662C410.448 55.7749 414.117 43.6364 422.93 33.8761C436.688 18.6164 463.177 8.60833 501.638 4.12454C529.205 0.904132 552.78 1.74639 553.772 1.78355C559.25 1.99412 563.514 6.58939 563.304 12.0517C563.105 17.3901 558.705 21.5891 553.4 21.5891C553.276 21.5891 553.152 21.5891 553.028 21.5891C528.176 20.6725 459 23.4717 437.655 47.1541C432.71 52.6412 430.9 58.698 431.954 66.1917C432.487 69.9075 434.333 72.7811 437.792 75.2336C456.161 88.2886 505.196 82.368 522.536 78.9866C527.879 77.9338 533.085 81.4143 534.163 86.7651C535.241 92.1159 531.783 97.3181 526.441 98.4205C474.952 109.035 370.809 142.478 377.564 178.051C379.163 186.449 383.006 191.911 389.674 195.256C402.862 201.857 439.515 205.858 536.853 158.407C541.773 156.004 547.711 158.048 550.115 162.965C552.52 167.882 550.475 173.815 545.554 176.218C487.223 204.657 441.969 218.938 410.386 218.938L410.399 218.926Z" fill="white"/>
<path d="M557.999 219C556.127 219 554.231 218.467 552.545 217.365C548.194 214.491 546.806 208.744 549.372 204.211L661.386 6.34169C664.075 1.57301 670.136 -0.0991208 674.896 2.60107C679.668 5.28887 681.341 11.3457 678.639 16.102L620.308 119.143C624.56 114.436 628.898 109.704 633.336 104.96C695.757 38.0751 743.465 3.30708 775.159 1.61017C787.096 0.978477 797.433 4.88012 805.056 12.9311C808.837 16.9195 813.039 24.3264 811.588 36.9603C808.093 67.4055 774.019 111.946 734.02 138.366C699.166 161.392 661.782 172.143 641.603 176.652C653.948 190.512 685.271 210.429 756.195 186.982C761.389 185.26 767.003 188.084 768.726 193.274C770.449 198.464 767.623 204.075 762.43 205.796C714.064 221.787 674.958 221.613 646.202 205.264C623.618 192.419 616.367 173.951 616.069 173.171C614.991 170.347 615.264 167.189 616.813 164.587C618.362 161.986 621.003 160.24 624.002 159.831C624.523 159.757 677.065 152.238 723.088 121.83C753.815 101.542 788.781 61.6831 791.88 34.706C792.326 30.8292 791.88 27.8565 790.641 26.5683C786.997 22.7162 782.398 21.0812 776.213 21.4157C741.631 23.2736 680.994 82.9626 647.937 118.375C603.117 166.383 566.254 214.628 565.882 215.111C563.936 217.662 560.986 219.012 557.986 219.012L557.999 219Z" fill="white"/>
<path d="M838.163 218.975C835.003 218.975 831.891 218.69 828.83 218.108C817.017 215.854 808.316 209.116 803.656 198.612C793.925 176.689 801.883 138.478 827.975 81.786C846.456 41.63 867.068 7.70425 867.949 6.27983C870.799 1.61025 876.898 0.123905 881.571 2.97273C886.244 5.82155 887.731 11.9155 884.88 16.5851C853.484 68.0869 808.601 160.859 821.789 190.574C823.797 195.107 827.119 197.597 832.561 198.625C834.482 198.996 836.44 199.17 838.424 199.17C882.079 199.17 940.236 113.321 954.218 56.3572C959.04 36.6879 957.874 22.6915 951.231 20.6973C942.145 17.96 927.122 21.8369 914.703 41.7538C902.816 60.8162 898.688 88.6355 913.798 104.899C917.529 108.912 917.293 115.179 913.277 118.907C909.261 122.636 902.989 122.4 899.258 118.387C876.352 93.7263 882.476 55.9484 897.87 31.2751C913.203 6.70096 935.824 -4.63239 956.945 1.72172C967.766 4.97929 984.288 17.0063 973.48 61.0763C965.386 94.0483 943.992 135.492 918.966 166.656C891.598 200.743 863.288 218.963 838.163 218.963V218.975Z" fill="white"/>
</g>
<defs>
<clipPath id="clip0_376_652">
<rect width="977" height="219" fill="white"/>
</clipPath>
</defs>
</svg>
