<svg width="1234" height="247" viewBox="0 0 1234 247" fill="none" xmlns="http://www.w3.org/2000/svg">
<g clip-path="url(#clip0_371_219)">
<path d="M203.11 14.02C195.8 10.69 186.23 9.02002 174.42 9.02002C157.66 9.02002 140.94 11.82 124.29 17.4C107.63 22.99 91.89 30.62 77.06 40.29C62.23 49.96 49.06 61.08 37.57 73.66C26.07 86.23 16.94 99.45 10.17 113.31C3.39 127.18 0 141.1 0 155.07C0 175.28 6.18 191.18 18.54 202.78C30.9 214.39 50.83 220.19 78.34 220.19C98.54 220.19 119.39 217.34 140.88 211.65C162.37 205.96 184.94 197.3 208.58 185.7L197.3 158.94C174.94 169.69 154.53 177.75 136.05 183.12C117.56 188.5 99.08 191.18 80.6 191.18C64.26 191.18 52.44 187.69 45.14 180.7C37.83 173.72 34.18 164.31 34.18 152.49C34.18 141.32 36.97 130.2 42.56 119.12C48.15 108.05 55.67 97.68 65.13 88.01C74.59 78.34 85.06 69.69 96.56 62.06C108.06 54.43 119.98 48.47 132.35 44.17C144.71 39.87 156.58 37.72 167.97 37.72C175.06 37.72 180.59 38.69 184.57 40.62C188.54 42.55 190.53 45.35 190.53 49C190.53 52.44 189.02 55.93 186.02 59.48C183.01 63.03 178.39 67.06 172.16 71.57L192.79 92.53C203.96 83.94 211.97 75.82 216.81 68.19C221.65 60.56 224.06 53.2 224.06 46.11C224.06 39.02 222.39 33 219.06 27.41C215.73 21.82 210.41 17.37 203.1 14.03L203.11 14.02Z" fill="white"/>
<path d="M480.04 196.66C474.66 197.74 470.04 198.27 466.18 198.27C461.67 198.27 458.06 197.14 455.38 194.89C452.69 192.63 451.35 189.14 451.35 184.41C451.35 176.46 453.07 167.65 456.51 157.97C459.95 148.3 465.26 137.13 472.47 124.44C479.67 111.76 488.64 96.82 499.39 79.63L474.89 62.87C455.11 90.17 436.04 113.49 417.67 132.83C399.29 152.17 381.51 166.9 364.31 177C347.11 187.11 330.14 192.15 313.37 192.15C303.27 192.15 295.37 189.52 289.67 184.25C283.97 178.99 281.13 171.09 281.13 160.55C281.13 148.3 284.24 134.71 290.48 119.77C296.71 104.83 305.68 88.98 317.4 72.22C329.11 55.46 343.14 38.05 359.47 19.99L338.19 0C319.06 19.56 302.73 38.96 289.19 58.19C275.65 77.43 265.28 95.8 258.08 113.32C250.88 130.84 247.28 147.12 247.28 162.16C247.28 182.15 252.81 197.09 263.88 206.97C274.95 216.85 289.94 221.8 308.85 221.8C322.39 221.8 336.14 219.27 350.12 214.22C364.09 209.17 378.17 201.76 392.35 191.97C402.68 184.85 412.89 176.49 422.99 166.92C422.65 168.22 422.31 169.52 422.01 170.85C420.5 177.51 419.75 183.75 419.75 189.55C419.75 201.37 423.08 210.51 429.74 216.95C436.4 223.4 446.5 226.62 460.04 226.62C466.49 226.62 473.63 225.98 481.48 224.69C489.32 223.4 496.15 221.89 501.95 220.18L496.15 193.1C490.77 194.39 485.4 195.57 480.03 196.65L480.04 196.66Z" fill="white"/>
<path d="M684.43 173.93C670.67 182.21 656.54 188.55 642.04 192.95C627.53 197.36 612.22 199.56 596.1 199.56C583.2 199.56 572.89 197.36 565.15 192.95C557.41 188.55 553.54 181.94 553.54 173.12C553.54 157.43 564.07 146.31 585.13 139.75C597.29 135.97 612.47 133.07 630.65 131.04C633.98 135.36 637.72 139.71 641.87 144.11L660.77 128.62C665.5 128.37 670.37 128.16 675.4 127.99L674.76 99.3C665.15 99.51 656.07 99.91 647.47 100.49C643.95 93 642.19 85.51 642.19 78.02C642.19 68.14 644.39 59.81 648.8 53.03C653.2 46.26 659.71 41.05 668.3 37.39C676.89 33.74 687.32 31.91 699.57 31.91C705.16 31.91 711.34 32.72 718.11 34.33C724.88 35.94 731.49 38.41 737.94 41.75C744.39 45.08 749.97 49.44 754.7 54.81L776.3 33.85C767.92 23.97 756.9 16.39 743.25 11.12C729.6 5.85997 715.79 3.21997 701.82 3.21997C682.9 3.21997 666.52 6.33997 652.65 12.57C638.79 18.81 628.15 27.51 620.73 38.68C613.31 49.86 609.61 62.75 609.61 77.37C609.61 86.11 611.35 94.96 614.83 103.91C610.2 104.61 605.76 105.37 601.54 106.22C581.76 110.2 565.86 115.68 553.83 122.66C541.79 129.65 533.09 137.65 527.72 146.68C522.34 155.71 519.66 165.49 519.66 176.02C519.66 185.48 521.97 194.13 526.59 201.97C531.21 209.82 538.79 216.05 549.32 220.67C559.85 225.29 573.93 227.6 591.55 227.6C610.25 227.6 628.3 225.18 645.71 220.35C663.12 215.52 679.99 208.58 696.33 199.56C712.66 190.53 728.46 179.57 743.72 166.68L725.34 144.43C711.8 155.82 698.15 165.66 684.4 173.93H684.43Z" fill="white"/>
<path d="M993.76 39.98C985.48 30.1 973.55 22.41 957.97 16.93C942.38 11.45 923.42 8.70996 901.07 8.70996C882.37 8.70996 864.26 10.32 846.75 13.55C829.23 16.77 811.77 21.4 794.36 27.41L802.74 53.85C819.5 48.48 836 44.39 852.23 41.6C868.46 38.81 884.74 37.41 901.07 37.41C913.97 37.41 925.84 38.97 936.69 42.08C947.54 45.2 956.3 49.87 962.97 56.1C969.63 62.34 972.96 70.18 972.96 79.63C972.96 95.54 964.74 108.97 948.3 119.93C933.7 129.67 913.35 137.58 887.3 143.67C884.02 144.44 880.67 145.18 877.21 145.89C869.44 147.48 861.28 148.95 852.72 150.29C842.56 151.88 831.83 153.3 820.56 154.54C823.44 150.49 826.32 146.43 829.17 142.35C838.41 129.13 847.33 116.02 855.93 103.02C864.52 90.02 872.69 77.39 880.43 65.14L854.96 48.7C847.22 60.74 839.11 73.2 830.62 86.1C822.13 99 813.37 112.05 804.35 125.27C796.79 136.34 789.07 147.25 781.22 158.01C776.13 158.36 770.94 158.67 765.67 158.96L766.89 177.31C760.74 185.47 754.63 193.45 748.58 201.19L772.44 219.57C780.82 208.52 789.25 197.29 797.72 185.9C821.76 183.88 843.5 181.1 862.95 177.57C865.57 183.9 868.18 189.68 870.77 194.91C877.86 209.21 885.17 220.06 892.69 227.47C900.21 234.89 908.38 239.99 917.19 242.78C926 245.57 935.78 246.97 946.53 246.97C951.69 246.97 957.38 246.43 963.62 245.36C969.85 244.28 975.65 242.99 981.03 241.49L974.91 214.09C969.96 215.38 965.18 216.4 960.56 217.15C955.94 217.9 951.26 218.28 946.54 218.28C935.58 218.28 926.66 215.06 919.78 208.61C912.9 202.16 906.67 192.28 901.08 178.95C899.89 176.12 898.67 173.13 897.4 169.98C919.06 164.31 937.22 157.63 951.85 149.93C970.65 140.05 984.41 128.71 993.12 115.92C1001.82 103.13 1006.18 89.43 1006.18 74.81C1006.18 61.49 1002.04 49.88 993.77 39.99L993.76 39.98Z" fill="white"/>
<path d="M1223.29 37.0901C1209.38 18.7501 1184.51 11.4101 1153.26 16.4101C1125.35 20.8701 1094.76 34.8701 1067.15 55.8201C1039.53 76.7701 1017.81 102.45 1005.99 128.13C992.75 156.88 993.12 182.81 1007.03 201.14C1018.09 215.72 1036.08 223.35 1058.7 223.35C1064.53 223.35 1070.66 222.84 1077.06 221.82C1104.97 217.36 1135.56 203.36 1163.17 182.4C1190.79 161.45 1212.51 135.77 1224.33 110.09C1237.57 81.34 1237.2 55.4101 1223.29 37.0801V37.0901ZM1197.08 97.5601C1187.28 118.84 1168.8 140.49 1145.04 158.51C1121.28 176.53 1095.45 188.5 1072.32 192.2C1052.81 195.32 1037.73 191.97 1030.93 183.01C1024.13 174.05 1024.97 158.62 1033.23 140.67C1043.03 119.39 1061.51 97.7401 1085.27 79.7201C1109.03 61.6901 1134.86 49.7301 1157.99 46.0301C1162.77 45.2701 1167.29 44.8901 1171.48 44.8901C1184.39 44.8901 1194.25 48.4601 1199.38 55.2201C1206.18 64.1801 1205.34 79.6101 1197.08 97.5601Z" fill="white"/>
</g>
<defs>
<clipPath id="clip0_371_219">
<rect width="1234" height="246.95" fill="white"/>
</clipPath>
</defs>
</svg>
