<svg width="1395" height="309" viewBox="0 0 1395 309" fill="none" xmlns="http://www.w3.org/2000/svg">
<path d="M0.401138 241.914C0.401138 191.78 30.1686 132.767 74.5587 84.7212C118.427 37.1977 171.172 5.86349 210.862 5.86349C240.63 5.86349 255.775 20.4861 255.775 49.7313C255.775 62.7873 251.075 78.4543 241.674 97.2549C230.707 117.622 216.607 137.467 198.329 157.834C194.151 162.534 186.84 162.534 182.662 158.879C177.961 154.701 177.961 147.39 181.617 143.212C199.373 123.889 212.951 105.088 221.829 87.3324C229.663 71.143 233.841 58.6094 233.841 49.7313C233.841 35.1087 226.007 27.7974 210.34 27.7974C175.35 27.7974 129.916 57.0426 90.748 99.3438C49.4914 143.212 22.3351 196.48 22.3351 241.914C22.3351 268.548 33.302 282.127 54.7137 282.127C67.7696 282.127 83.959 276.904 102.237 266.982C107.46 263.848 145.583 239.825 216.607 194.391C221.307 190.735 229.141 193.346 231.752 198.046C235.408 202.747 232.796 210.58 228.096 213.191C162.817 255.492 124.693 279.515 113.204 285.782C91.7925 297.794 72.4697 304.06 54.7137 304.06C19.7239 304.06 0.401138 281.604 0.401138 241.914ZM287.325 242.437C287.325 213.714 296.203 178.724 313.437 137.989C331.715 95.1659 356.783 53.387 388.639 12.1303C396.995 0.641134 414.751 13.697 406.395 25.7085C375.583 65.9207 351.038 106.133 333.804 146.345C317.615 183.946 309.259 215.803 309.259 242.437C309.259 268.026 321.27 282.127 340.593 282.127C362.527 282.127 390.728 262.804 425.718 223.636C469.063 175.068 513.976 105.088 561.499 14.7415C564.11 10.5636 567.244 8.47467 570.899 8.47467C572.466 8.47467 574.555 8.9969 576.644 10.0414C580.822 12.6526 582.911 15.786 582.911 19.4416C582.911 21.0083 582.389 23.0973 581.344 25.1862C531.732 118.667 485.253 190.213 441.907 238.781C402.739 282.127 369.316 304.06 340.593 304.06C309.781 304.06 287.325 282.127 287.325 242.437ZM548.341 251.837C548.341 228.336 560.875 206.402 585.42 186.035C598.476 175.068 614.143 165.668 632.421 156.79C617.799 147.39 610.487 134.334 610.487 117.1C610.487 87.3324 631.377 62.265 673.156 41.8978C713.89 22.5751 768.203 11.6081 836.616 8.47467C850.194 8.47467 850.716 29.3641 837.66 29.3641C772.903 31.9753 721.202 42.42 682.034 61.2205C648.088 76.8876 631.377 95.6881 631.377 117.1C631.377 135.378 641.299 144.256 661.144 144.256C675.245 138.512 691.434 133.289 708.668 128.589C726.946 123.367 740.524 120.755 749.925 120.755C768.203 120.755 772.903 132.245 765.069 139.034C757.758 147.912 741.569 154.179 717.024 158.879C699.268 162.534 682.034 164.623 665.322 165.146C636.599 176.113 614.665 188.646 598.998 202.224C579.153 218.414 569.231 234.603 569.231 251.837C569.231 260.715 571.842 268.026 577.587 273.249C583.853 279.515 593.254 282.649 606.31 282.649C621.454 282.649 639.733 276.904 661.144 265.937C681.512 255.492 718.59 231.992 771.336 195.958C773.425 194.391 775.514 193.869 777.081 193.869C780.214 193.869 783.348 195.435 785.959 199.091C787.526 201.18 788.048 203.269 788.048 204.836C788.048 207.969 786.481 211.102 782.825 213.714C729.035 250.27 691.434 273.771 671.067 284.215C646.522 297.271 625.11 303.538 606.31 303.538C588.031 303.538 573.931 298.838 563.486 288.916C553.564 279.515 548.341 266.982 548.341 251.837ZM813.417 269.593C813.417 246.614 826.473 216.847 852.585 180.813C871.908 153.134 896.453 124.933 925.176 96.7326L943.454 16.8304C945.021 10.5636 950.765 6.38572 956.51 7.95244C962.777 9.51913 966.955 15.2637 965.388 21.0083L953.899 70.6208L961.732 64.354C1008.73 25.1862 1048.42 5.86349 1081.32 5.86349C1110.57 5.86349 1128.33 23.0973 1128.33 48.6869C1128.33 62.265 1123.63 75.3209 1114.75 87.8546C1105.87 100.388 1088.64 116.055 1063.05 134.334C1028.58 159.401 1006.12 176.635 995.678 185.513C985.755 194.391 980.533 203.269 980.533 211.102C980.533 228.336 1005.08 250.27 1049.47 282.127C1060.96 290.482 1048.42 308.238 1036.93 299.883C978.966 259.67 958.077 236.17 958.077 212.669C958.077 198.569 963.821 186.035 975.31 174.024C987.322 162.012 1011.87 143.212 1049.99 116.578C1087.59 90.4658 1106.39 68.0096 1106.39 48.6869C1106.39 34.5865 1098.04 27.7974 1081.32 27.7974C1054.17 27.7974 1019.18 45.5535 976.355 81.0655C962.254 93.077 951.81 102.477 945.021 109.266C929.876 168.279 916.82 212.669 904.808 241.392C887.052 283.171 867.207 304.06 845.796 304.06C825.428 304.06 813.417 290.482 813.417 269.593ZM835.351 269.593C835.351 277.949 839.007 282.127 845.796 282.127C857.807 282.127 870.863 265.415 884.441 232.514C894.364 208.491 904.286 177.679 914.209 140.6C898.019 158.879 883.397 176.113 870.863 193.346C847.362 227.292 835.351 252.359 835.351 269.593ZM1133.8 219.98C1133.8 184.991 1143.72 148.434 1163.04 110.311C1182.89 71.143 1210.04 37.7199 1245.03 10.0414C1250.26 5.86349 1262.79 8.9969 1262.79 18.9194C1262.79 22.5751 1261.22 25.7085 1258.61 27.7974C1227.8 51.298 1202.21 82.6322 1182.36 120.755C1164.61 155.745 1155.73 188.646 1155.73 219.98C1155.73 261.237 1172.96 282.127 1207.95 282.127C1244.51 282.127 1281.07 258.104 1318.15 210.058C1351.57 167.757 1372.98 115.533 1372.98 73.7542C1372.98 40.8533 1363.06 27.7974 1339.56 27.7974C1326.5 27.7974 1312.92 33.542 1298.82 45.0312C1284.72 57.0426 1273.76 72.1875 1264.88 90.988C1263.31 95.1659 1259.66 97.2549 1254.96 97.2549C1248.69 97.2549 1243.99 92.5547 1243.99 86.2879C1243.99 85.2434 1244.51 83.6767 1245.03 81.5878C1254.43 60.1761 1267.49 42.42 1284.2 28.3196C1302.48 13.1748 1321.28 5.86349 1339.56 5.86349C1376.64 5.86349 1394.91 28.3196 1394.91 73.7542C1394.91 119.711 1371.41 177.157 1335.38 223.636C1294.12 277.426 1251.82 304.06 1207.95 304.06C1161.48 304.06 1133.8 275.86 1133.8 219.98Z" fill="white"/>
</svg>
