<?xml version="1.0" encoding="UTF-8"?>
<svg id="Layer_1" xmlns="http://www.w3.org/2000/svg" version="1.1" viewBox="0 0 979 221">
  <!-- Generator: Adobe Illustrator 29.5.1, SVG Export Plug-In . SVG Version: 2.1.0 Build 141)  -->
  <defs>
    <style>
      .st0 {
        fill: #fff;
      }
    </style>
  </defs>
  <path class="st0" d="M26.21,14.98v188.74H3V14.98h23.21Z"/>
  <path class="st0" d="M65.74,95.71c5.78-10.8,13.73-19.17,23.85-25.12,10.11-5.95,21.38-8.93,33.79-8.93s22.87,2.64,31.88,7.91c9.01,5.27,15.73,11.9,20.15,19.89v-25.5h23.46v139.77h-23.46v-26.02c-4.59,8.16-11.44,14.92-20.53,20.28-9.1,5.36-19.68,8.03-31.75,8.03s-23.64-3.06-33.67-9.18c-10.03-6.12-17.94-14.7-23.72-25.76-5.78-11.05-8.67-23.63-8.67-37.75s2.89-26.82,8.67-37.62ZM169.03,106.04c-4.25-7.82-9.99-13.81-17.22-17.98-7.23-4.16-15.18-6.25-23.85-6.25s-16.58,2.04-23.72,6.12-12.84,10.03-17.09,17.85c-4.25,7.82-6.38,17-6.38,27.55s2.12,20.02,6.38,27.93c4.25,7.91,9.95,13.94,17.09,18.11,7.14,4.17,15.05,6.25,23.72,6.25s16.62-2.08,23.85-6.25c7.22-4.16,12.96-10.2,17.22-18.11,4.25-7.91,6.38-17.13,6.38-27.67s-2.13-19.72-6.38-27.55Z"/>
  <path class="st0" d="M362.1,63.95v139.77h-23.21v-20.66c-4.42,7.14-10.58,12.71-18.49,16.71s-16.62,5.99-26.14,5.99c-10.88,0-20.66-2.25-29.33-6.76-8.67-4.5-15.52-11.26-20.53-20.28-5.02-9.01-7.52-19.98-7.52-32.9V63.95h22.95v78.81c0,13.77,3.48,24.36,10.46,31.75,6.97,7.4,16.49,11.09,28.57,11.09s22.19-3.83,29.33-11.48c7.14-7.65,10.71-18.79,10.71-33.41V63.95h23.21Z"/>
  <path class="st0" d="M442.06,68.03c7.56-4.42,16.79-6.63,27.67-6.63v23.97h-6.12c-26.01,0-39.02,14.12-39.02,42.34v76h-23.21V63.95h23.21v22.7c4.08-7.99,9.9-14.2,17.47-18.62Z"/>
  <path class="st0" d="M623.27,142.51h-111.71c.85,13.77,5.57,24.53,14.16,32.26,8.58,7.74,19,11.6,31.24,11.6,10.03,0,18.4-2.33,25.12-7.01,6.72-4.68,11.43-10.92,14.16-18.75h25c-3.74,13.43-11.22,24.36-22.44,32.77-11.22,8.42-25.17,12.63-41.83,12.63-13.26,0-25.12-2.97-35.58-8.93-10.46-5.95-18.66-14.41-24.61-25.38-5.95-10.97-8.93-23.68-8.93-38.13s2.89-27.12,8.67-38c5.78-10.88,13.9-19.26,24.36-25.12,10.46-5.87,22.48-8.8,36.09-8.8s25,2.89,35.2,8.67c10.2,5.78,18.06,13.73,23.59,23.85,5.52,10.12,8.29,21.55,8.29,34.3,0,4.42-.26,9.1-.77,14.03ZM594.2,100.81c-3.91-6.38-9.23-11.22-15.94-14.54-6.72-3.32-14.16-4.97-22.32-4.97-11.73,0-21.72,3.74-29.97,11.22-8.25,7.48-12.97,17.85-14.16,31.12h88.25c0-8.84-1.96-16.45-5.87-22.83Z"/>
  <path class="st0" d="M677.85,14.98v188.74h-23.21V14.98h23.21Z"/>
  <path class="st0" d="M844.14,142.51h-111.71c.85,13.77,5.57,24.53,14.16,32.26,8.58,7.74,19,11.6,31.24,11.6,10.03,0,18.4-2.33,25.12-7.01,6.72-4.68,11.43-10.92,14.16-18.75h25c-3.74,13.43-11.22,24.36-22.44,32.77-11.22,8.42-25.17,12.63-41.83,12.63-13.26,0-25.12-2.97-35.58-8.93-10.46-5.95-18.66-14.41-24.61-25.38-5.95-10.97-8.93-23.68-8.93-38.13s2.89-27.12,8.67-38c5.78-10.88,13.9-19.26,24.36-25.12,10.46-5.87,22.48-8.8,36.09-8.8s25,2.89,35.2,8.67c10.2,5.78,18.06,13.73,23.59,23.85,5.52,10.12,8.29,21.55,8.29,34.3,0,4.42-.26,9.1-.77,14.03ZM815.07,100.81c-3.91-6.38-9.23-11.22-15.94-14.54-6.72-3.32-14.16-4.97-22.32-4.97-11.73,0-21.72,3.74-29.97,11.22-8.25,7.48-12.97,17.85-14.16,31.12h88.25c0-8.84-1.96-16.45-5.87-22.83Z"/>
  <path class="st0" d="M896.17,200.53c-8.5-3.65-15.22-8.76-20.15-15.3-4.93-6.54-7.65-14.07-8.16-22.57h23.97c.68,6.97,3.95,12.67,9.82,17.09,5.87,4.42,13.56,6.63,23.08,6.63,8.84,0,15.81-1.95,20.91-5.87,5.1-3.91,7.65-8.84,7.65-14.79s-2.72-10.67-8.16-13.65c-5.44-2.97-13.86-5.91-25.25-8.8-10.37-2.72-18.83-5.48-25.38-8.29-6.55-2.81-12.16-6.97-16.83-12.5-4.68-5.52-7.01-12.79-7.01-21.81,0-7.14,2.12-13.68,6.38-19.64,4.25-5.95,10.29-10.67,18.11-14.16,7.82-3.48,16.75-5.23,26.78-5.23,15.47,0,27.97,3.91,37.49,11.73,9.52,7.82,14.62,18.53,15.3,32.14h-23.21c-.51-7.31-3.44-13.17-8.8-17.6-5.36-4.42-12.54-6.63-21.55-6.63-8.33,0-14.96,1.79-19.89,5.36-4.93,3.57-7.4,8.25-7.4,14.03,0,4.59,1.49,8.38,4.46,11.35,2.97,2.98,6.72,5.36,11.22,7.14,4.5,1.79,10.75,3.79,18.75,5.99,10.03,2.72,18.19,5.4,24.49,8.03,6.29,2.64,11.69,6.59,16.2,11.86,4.5,5.27,6.84,12.16,7.01,20.66,0,7.65-2.13,14.54-6.38,20.66-4.25,6.12-10.25,10.93-17.98,14.41-7.74,3.48-16.62,5.23-26.65,5.23-10.71,0-20.32-1.83-28.82-5.48Z"/>
</svg>