<svg width="1073" height="243" viewBox="0 0 1073 243" fill="none" xmlns="http://www.w3.org/2000/svg">
<g clip-path="url(#clip0_375_637)">
<path d="M621.686 163.179C625.609 167.958 624.853 175.024 620.016 178.882C577.802 212.491 536.658 240.014 501.716 240.014C482.147 240.014 464.8 231.525 464.8 212.697C464.8 193.869 485.479 177.253 507.63 161.378C519.442 152.889 524.246 149.196 526.088 147.715C527.569 146.605 527.569 145.132 526.088 144.392C493.968 128.517 484.368 106.736 484.368 94.1833C484.368 56.1566 581.833 2.62476 628.357 2.62476C644.972 2.62476 665.281 8.90085 665.281 35.1157C665.281 48.7783 659.745 65.7559 650.516 84.9543C647.933 90.4901 641.287 92.7028 635.751 90.1199C630.216 87.5371 627.995 80.8909 630.586 75.3551C639.075 57.2671 643.138 42.8641 643.138 35.1157C643.138 27.3672 639.445 24.7762 628.373 24.7762C584.811 24.7762 506.536 77.5677 506.536 93.4431C506.536 97.5065 511.332 108.948 537.547 125.194C544.933 129.997 550.099 137.376 550.099 145.503C550.099 153.629 546.035 160.638 538.657 166.182C525.817 175.715 506.051 188.901 494.576 201.025C494.428 201.181 494.288 201.346 494.149 201.51C492.397 203.591 486.968 209.168 486.968 212.705C486.968 213.816 487.708 217.871 501.732 217.871C532.603 217.871 566.961 193.4 606.164 161.608C610.894 157.775 617.844 158.474 621.702 163.187L621.686 163.179Z" fill="white"/>
<path d="M1034.76 166.947C1004.85 211.249 964.979 243 932.488 243C905.171 243 892.98 221.589 892.98 194.634C892.98 150.331 924.731 78.3328 993.406 3.75993C997.47 -0.673638 1004.49 -1.04379 1008.91 3.01963C1013.34 7.08306 1013.72 14.0912 1009.65 18.5248C945.04 89.0424 915.14 156.607 915.14 194.634C915.14 215.675 923.259 220.849 932.488 220.849C953.537 220.849 990.453 194.264 1019.25 149.961C1007.07 131.133 1002.27 107.13 1002.27 88.6723C1002.27 61.347 1019.25 30.3367 1050.26 30.3367C1066.88 30.3367 1072.41 46.212 1072.41 67.9932C1072.41 88.3021 1064.29 114.509 1046.2 147.74L1034.76 166.938V166.947ZM1050.63 69.4739C1051.37 55.4411 1049.16 52.8582 1047.31 52.8582C1037.34 52.8582 1024.42 68.3634 1024.42 87.932C1024.42 102.327 1026.63 115.249 1032.16 127.069C1044.72 103.807 1050.25 80.1835 1050.62 69.4739H1050.63Z" fill="white"/>
<path d="M58.2027 217.863C30.1454 217.863 22.7588 209.374 22.7588 194.231C22.7588 138.486 122.074 24.7679 175.236 24.7679C179.299 24.7679 182.984 26.2485 182.984 33.9969C182.984 41.7454 179.291 55.7782 170.432 75.3468C167.849 80.8826 170.062 87.5288 175.598 90.1116C181.134 92.6944 187.78 90.4818 190.363 84.946C200.702 63.5349 205.127 46.9193 205.127 33.9969C205.127 14.7985 191.835 2.61646 175.219 2.61646C107.309 2.62468 0.607422 127.776 0.607422 194.231C0.607422 227.832 24.6013 240.014 58.2027 240.014C91.8041 240.014 141.034 226.96 194.689 204.644C199.592 202.604 202.347 197.365 201.286 192.166C199.888 185.331 192.6 181.473 186.151 184.138C134.429 205.508 86.3752 217.863 58.2109 217.863H58.2027Z" fill="white"/>
<path d="M447.707 194.371C444.327 189.213 437.343 187.839 432.038 190.99C415.43 200.852 382.01 218.694 358.797 217.871C355.844 217.764 358.057 213.437 358.427 212.705L427.464 73.5208C430.047 68.7171 428.204 62.441 423.401 59.488C418.597 56.535 412.321 57.2753 408.998 61.7007C335.527 155.48 273.136 217.871 251.347 217.871C250.607 217.871 249.134 217.131 249.134 213.075C249.134 181.695 285.689 103.421 335.897 19.2486C337.74 15.9255 337.74 11.5001 335.527 7.80686C333.397 4.60713 329.893 2.44381 325.681 2.61654C325.147 2.58364 324.604 2.59187 324.053 2.64122C321.93 2.85508 319.849 3.06895 317.785 3.27459C307.149 4.22875 296.908 5.3392 286.996 6.60593C276.213 7.86444 266.153 9.17231 256.661 10.6118C255.229 10.8256 253.905 11.3192 252.737 12.0183C247.81 13.9349 244.808 19.1828 245.91 24.5705C247.111 30.4436 252.753 34.3014 258.651 33.2732C273.465 30.6986 289.02 28.4777 305.586 26.6434L304.624 28.4036C261.876 104.506 226.975 173.872 226.975 210.871C226.975 228.589 236.574 240.039 250.969 240.039C274.962 240.039 311.887 208.658 353.977 161.403C358.411 156.607 363.206 151.433 368.01 144.787L338.472 202.752C335.889 207.548 334.787 212.335 334.779 217.131C334.77 229.954 345.316 240.121 358.139 240.047C390.013 239.858 426.864 220.602 443.94 210.558C449.541 207.26 451.31 199.923 447.691 194.403L447.707 194.371Z" fill="white"/>
<path d="M915.881 33.5282C915.881 17.3403 906.684 2.25464 886.811 2.25464C862.53 2.25464 815.43 17.3403 755.828 75.4702C746.262 85.0366 736.325 95.3432 724.924 109.318L774.96 18.8044C779.74 10.3404 772.386 1.87626 764.292 2.61656C742.65 4.79633 716.296 8.103 696.711 10.8832C690.936 11.7058 686.61 16.8468 687.153 22.6458C687.737 28.8396 693.338 33.2238 699.417 32.3848C712.553 30.5752 730.765 28.1816 745.891 26.5282L636.985 225.948C634.04 231.098 635.883 237.719 641.032 240.664C645.819 243.609 652.441 242.136 655.748 236.987C766.866 61.4868 855.538 24.3238 885.709 24.3238C891.599 24.3238 893.803 29.1111 893.803 33.52C893.803 102.327 797.77 156.78 712.413 177.755C705.052 179.597 701.375 188.424 705.792 194.683C723.452 220.437 751.049 239.2 784.527 239.2C804.038 239.2 822.907 236.724 843.117 231.131C849.213 229.444 852.618 222.963 850.586 216.974C848.711 211.455 842.854 208.362 837.228 209.9C818.729 214.976 801.784 217.122 784.527 217.122C765.024 217.122 747.734 209.029 734.491 194.683C818.013 170.401 915.881 113.365 915.881 33.5282Z" fill="white"/>
</g>
<defs>
<clipPath id="clip0_375_637">
<rect width="1071.81" height="242.81" fill="white" transform="translate(0.607422 0.189941)"/>
</clipPath>
</defs>
</svg>
