<?xml version="1.0" encoding="UTF-8"?>
<svg id="Layer_1" xmlns="http://www.w3.org/2000/svg" version="1.1" viewBox="0 0 950 500">
  <!-- Generator: Adobe Illustrator 29.5.1, SVG Export Plug-In . SVG Version: 2.1.0 Build 141)  -->
  <path d="M850.4,401.11c-6.23-15.35-20.5-11.67-33.25-15.46-13.9-4.14-23.77-15.77-35.44-23.54-20.44-13.6-70.34-38.25-74.94-63.53-2.71-14.92,4.58-55.88,16.73-65.46,8.49-6.69,26.71-7.41,37.16-6.41,6.23.6,12.63,3.52,19.19,3.88,14.36.78,21.63-3.88,30.85-14.11,1.96-6.73,13.15-13.21,14.44-18.9,2.71-11.95-10.22-18.16-12.26-28.23-1.35-6.64.67-14.8-.37-21.43-2.09-13.33-21.36-30.69-33.33-36.19,1.71-14.53,14.43-27.38,11.06-42.83-4.01-5.78-20.81,7.38-24.4,10.37-5.18,4.32-9.18,10.18-14.77,14.07-.42-8.23,1.66-39.26-6.45-42.95-6.2-2.83-15.73,6.13-20.5,10.23-9.84,8.46-25.54,25.15-31.44,36.51-2.28,4.4-5.58,18.41-7,19.92-1.29,1.37-7.29,3.54-9.91,5.48-13.18,9.76-27.92,30.28-42.59,34.34-29.26,8.08-73.48-17.92-101.01-28.58-53.32-20.66-110.17-37.17-166.97-21.48-7.88,2.18-25.45,10.6-31.43,10.99-5.56.36-14.56-2.28-20.5-2.64-46.52-2.81-84.6-.09-127.57-22.43-23.37-12.14-41.65-31.79-63.68-44.02-10.37-5.76-26.57-13.42-23.38,6.73,1.39,8.79,31.52,37.69,39.63,44.98,34.84,31.3,72.24,50.45,119.89,53.19,6.81.39,31.07-1.4,34.69,1.2.99.71,2.74,3.57,2.84,4.79-10.59,22.19-14.48,57.58-42.01,65.22-13.21,3.67-24.26-2.22-35.83,5.19-21.43,19.72-41.83,47.15-64.17,65.33-9.34,7.6-26.35,11.67-32.74,19.83-8.91,11.39-1.36,23.6,10.94,27.59,32.4,10.52,65.05-32.4,86.55-50.61,16.4-13.89,25.3-13.37,37.25-9.66-2.3,1.37-23.94,28.68-30.91,33.96-8.09,6.13-18.5,5.64-22.91,15.56-5.4,12.14.92,23.62,14.07,25.4,29.82,4.03,44.59-23.31,61.41-42.22,1.63-1.84,21.37-21.09,21.85-21.39,20.43,3.64,41.74,4.23,58.71-8.31,12.4-9.16,17.42-25.69,34.98-27.85,32.33-3.97,61.22,17.61,89.37,29.58,11.8,5.02,24.19,10.07,36.75,12.61l-16.37,3.48c-2.49.73-4.89,1.57-6.73,3.53-4.96,5.28-13.19,26.82-17.69,34.88-13.24,23.71-34.22,44.75-27.83,73.56,4.82,21.74,20.84,24.88,41.05,23.02,12.17-1.12,22.57-3.89,19.59-18.28-2.63-12.72-21.41-11.49-22.66-15.88-1.32-4.62,18.76-27.3,22.93-31.89,28.77-31.66,55.05-58.51,101.81-53.05,28.4,3.32,31.3,27.8,53.74,39.85,24.46,13.13,57.72,19.67,83.8,31.59,24.25,11.08,39.68,33.97,68.96,34.92,13.89.45,38.18-6.21,30.79-24.43Z"/>
</svg>