<?xml version="1.0" encoding="UTF-8"?>
<svg id="Layer_1" xmlns="http://www.w3.org/2000/svg" version="1.1" viewBox="0 0 950 500">
  <!-- Generator: Adobe Illustrator 29.5.1, SVG Export Plug-In . SVG Version: 2.1.0 Build 141)  -->
  <path d="M850.68,138.83c-3.35-4.62-46-14.92-56.94-21.99-9.53-6.16-9.08-16.38-17.41-25.05h0c-12.07-12.56-30.69-17.54-47.59-18.85-5.29-5.38-9.78-11.5-15.53-16.45-16.42-14.14-47.66-28-31.45,8.96-11.18-6.52-32.57-22.72-46-18.54-9.23,2.88-6.59,12.92-4.66,19.76,4.27,15.17,14.5,29.69,23.64,42.27-22.25,14.81-39.5,37.77-65.87,45.97-73.69,22.9-146.77-43.54-221.34-39.53-18.31.98-40.94,7.09-57.07,15.86-4.42,2.39-18.7,13.72-20.86,14.11-3,.55-6.55-.26-9.81.18-48.45,6.5-84.01,17.91-129.42-10.71-20.32-12.81-24.37-23.64-39.08-39.86-11.86-13.08-13.86-.77-12.99,11,4.73,63.62,75.43,98.07,133.09,86.1,10.79-2.24,21.46-6.32,31.71-10.29l2.07,1.12c-11.86,26.85-8.78,58.89,10.48,81.44,20.18,23.62,56.2,21.98,38.65,62.62-8.21,19-31.13,31.74-8.09,50.71,17,14,43.78,24.17,59.78,38.13,4.75,4.14,7.7,10.64,13.03,14.94,18.54,14.97,59.04,14.88,38.62-17.64-11.86-18.9-30.7-19.89-47.89-31.04-19.59-12.71-24.53-23.76-7.18-42.78,1.14,7.6-.06,16.56,4.97,23,7,8.97,38.54,15.63,50.15,21.79,12.96,6.87,19.68,20.23,37.79,20.24,28.4.02,10.58-31.35-2.02-41.03-18.37-14.11-58.91-8.36-62.3-38.6-1.34-11.98,2.53-10.84,8.3-18.47,9.74-12.89,15.93-25.25,18.07-37.99,1.75,2.25,20.7,20.14,23.46,22.59,17.38,15.43,36.46,29.18,58.01,38.14-3.06,17.2-5.22,34.41-7.03,51.8-.6,5.8.76,10.23-1.82,16.17-6.57,15.14-26.92,12.03-39.95,16-15.48,4.71-33.16,26.33-11.56,35.14,25.73,10.5,78.35-11.63,89.46-37.16,9.32-21.42,13.81-46.47,24.92-68.01,3.16-6.12,5.09-8.64,11.19-11.8,3.06-1.59,6.29-3.09,9.61-4.53-2.07,3.13-3.08,6.96-2.38,10.5.12,7.71,11.57,18.22,15.95,22.17,10.08,9.11,25.48,17.96,34.35,27.59,4.06,4.41,2.56,7.04-.11,11.72-7.38,12.93-23.29,15.52-34.24,24.71-20.97,17.61-12.23,41.17,15.47,33.47,15.15-4.21,52.73-38.47,58.78-53.13,7.36-17.83-10.41-34.12-19.25-48.41-5.53-8.95-10.07-18.36-15.39-27.41,14.03-11.34,29.74-19.25,40.01-34.74,11.76-17.72,11.04-35.04,19.22-51.73,2.83-5.78,8.88-13.68,12.71-19.26,18.34-26.73,27.64-43.29,63.76-36.17,15.18,2.99,42.54,16.04,55.98,3.05,2.45-2.36,2.56-5.8,3.98-7.01,2.6-2.21,9.51-3.94,13.97-8.01,5.98-5.46,19.25-27.89,14.05-35.06h0Z"/>
</svg>