<?xml version="1.0" encoding="UTF-8"?>
<svg id="Layer_1" xmlns="http://www.w3.org/2000/svg" version="1.1" viewBox="0 0 950 500">
  <!-- Generator: Adobe Illustrator 29.5.1, SVG Export Plug-In . SVG Version: 2.1.0 Build 141)  -->
  <path d="M175.77,321.84c-4.72.67-14.05,5.99-18.4,8.58-28.37,16.91-54.13,50.77-89.46,51.44-33.57.63-25.95-27.37-.97-34.98,13.16-4.01,17.1-1.49,29.31-10.65,20.7-15.53,38.33-38.01,57.34-55.57,6.64-3.6,24.8-2.07,33.16-2.81,40.17-3.57,49.07-39.67,67.43-68.46,7.39-11.59,16.22-22.15,24-33.45-31.79,10.75-64.59,19.26-98.12,10.7s-67.25-34.56-82.19-66.68c-2.3-4.95-10.85-24-.12-22.97,4.85.47,30.19,20.76,37.05,25,42.02,26,77.58,27.79,125.89,23.95,11.12-.88,21.69-3.72,33.02-3.04,4.82.29,11.64,2.9,14.93,2.92,2.95.02,17.5-6.19,22.48-7.37,53.85-12.81,108.51,10.11,161.49,17.35,28.49,3.89,62.15,5.84,90.49.87,27.8-4.88,47.2-24.91,68.81-41.16,2-2.87-4.53-9.7-6.26-12.86-4.53-8.26-15.89-29.62-12.15-38.42,1.18-2.79,7.3-2.42,9.86-2.26,15.36.98,27.74,12.78,40.41,20.02-2.51-9.24-12.56-27.93-7.43-36.92,2.47-4.33,7.59-.59,10.74,1.14,14.26,7.84,24.99,22.38,35.75,34.2,21.58,4.46,40.78,3.56,55.28,22.66,3.74,4.93,6.08,11.84,9.09,15.89,5.39,7.22,47.13,12.59,59.13,19.8,5.01,3.01,5.03,5.7,3.84,11.26-2.23,10.41-8.51,20.54-16.53,27.43-6.3,5.42-5.36,3.09-10.54,10.44-12.64,17.93-51.77-1.22-71.78,1.15s-43.77,34.64-51.41,52.5c-4.07,9.52.88,12.47,3.34,21.35,2.17,7.84,3.46,20.42,8.07,26.91,6.63,9.32,45.73,27.9,57.7,33.22,22.32,9.92,50.8,22.71,73.65,30.26,18.7,6.18,31.3,3.23,49.15,5.8,19.31,2.78,14.49,22.62.43,29.89-29.75,15.38-66.83-10.23-95.81-19.42-25.38-8.05-52.08-12.41-77.69-19.71,13.07,13.55,29.71,23.38,44.85,34.57,16.68,12.33,33.84,29.29,54.27,35.65,12.3,3.83,40.83.61,38.77,20.22-1.48,14.05-22.28,17.44-33.53,16.51-21.88-1.81-77.83-42.33-99.45-55.42-30.09-18.22-61.01-35.04-91.77-52.11-7.13-4.25-8.07-13.11-12.04-18.94-.76-1.12-7.89-8.11-8.72-8.34-1.71-.46-26.01,6.77-31.04,7.56-35.43,5.57-63.75-2.5-95.79-16.52-39.23-17.17-79.62-53.33-124.55-37.01-21.08,26.53-41.77,42.42-75.39,49.51-11.27,2.38-34.36,3.28-43.06,6.89-4.14,1.71-18.69,15.02-23.07,18.89-22.45,19.81-45.4,54.88-79.17,49.24-18-3.01-6.28-24.01,5.24-30.26,14.02-7.6,16.97-3.01,29.96-17,8.84-9.52,16.86-21.26,25-31.45-7.32.74-16.41-1-23.48,0h-.01Z"/>
</svg>