<?xml version="1.0" encoding="UTF-8"?>
<svg id="Layer_1" xmlns="http://www.w3.org/2000/svg" version="1.1" viewBox="0 0 950 500">
  <!-- Generator: Adobe Illustrator 29.5.1, SVG Export Plug-In . SVG Version: 2.1.0 Build 141)  -->
  <path d="M844.45,168.46c-13.77-12.28-41.48-20.59-54.82-32.63-6.23-5.62-4.77-9.88-7.33-16.91-11.95-32.83-69.47-44.28-99.73-36.45-15.92,4.12-47.65,27.83-58.3,40.74-11.09,13.43-12.21,23.2-6.1,39.76,10.93,29.62,52.77,72.24,80.86,36.08,14.03-18.06,11.64-40.94,10.48-62.12-.09-1.7-.77-7.22,1.09-7.95,5.13,21.58,4.62,48.71-7.33,67.99-29.34,47.34-83.99-5.65-89.58-42.71-24.53,8.87-44.94,22.75-72.1,23.23-91.05,1.62-180.92-49.38-272.03-7.61-47.99,22-84.55,44.88-140.67,27.28-4.53-1.42-23.38-10.77-26.18-8.73-5.5,14.59,14.23,23.64,25.39,27.44,34.3,11.67,71.68,4.79,105.3-5.74-17.37,38.99-9.52,72.67,28.42,93.27,11.07,6.01,25.06,7.59,26.34,23.17.85,10.29-3.47,18.35,1.29,29.28,4.19,9.61,26.07,15.06,35.5,21.39,14.21,9.56,16.7,27.81,37.51,29.92,8.47.86,33.94-.93,37.46-9.92,2.17-5.55,1.74-14.21-2.86-18.36-5.39-4.86-23.85-10.65-31.89-15.52-7.92-4.79-25.94-19.17-27.41-28.43-1.74-10.99,5.56-20.38,8.66-30.2,1.45-4.6,3.49-12.52,3.92-17.16.55-5.9-.4-12.46,0-18.44h1.04c-.4,1.31,1.06,3.06,1.06,3.69v15.81c0,6.76-5.24,21.24-7.62,28.2-4.36,12.73-9.18,14.49,1.33,27.62,15.06,18.82,66.13,41.62,89.49,33.72,10.75-3.64,15.28-13.17,8.31-23-9.07-12.78-47.77-9.92-58.21-30.29-2.22-4.33-5.54-17.93.98-18.91,5-.75,37.59,13.81,44.09,17.04,14.37,7.13,41.7,27.08,55.92,28.37,7.57.69,14.29-1.18,21.64-2.15v-.09c1.82-.26,3.57-.92,5.14-1.89-.12,1.22-.38,2.43-.85,3.64-4.24,10.72-30.96,7.91-39.51,20.54-8.06,11.91-4.1,27.96,10.71,31.29,19.87,4.47,64.13-4.6,73.54-24.99,3.21-6.96,3.5-15.61,5.61-23.35.9-.15,1.79-.38,2.66-.7l-.41.82,28.27-6.28s.07.09.11.14c-1.2,3.36,4.48,5.24,6.92,8.22,3.14,3.84,6.55,13.55,6.6,18.46.13,12.75-18.13,33.21-3,42.22,17.34,10.33,39.19-12.15,46.29-26.54,6.92-14.02,8.13-32.31-.06-46.05-1.84-3.08-8.29-10.85-12.26-12.14.11-1.77-.13-3.56-.73-5.26,10.34-7.07,19.05-16.26,24.94-28.98,14.54-31.4,14.33-52.39,40.97-79.95,40.92-42.33,70.5,6.84,115.48-12.25,10.78-4.58,39.76-25.05,25.66-37.63Z"/>
</svg>