<?xml version="1.0" encoding="UTF-8"?>
<svg id="Layer_1" xmlns="http://www.w3.org/2000/svg" version="1.1" viewBox="0 0 950 500">
  <!-- Generator: Adobe Illustrator 29.5.1, SVG Export Plug-In . SVG Version: 2.1.0 Build 141)  -->
  <path d="M820.59,146.26c-13.29-6.31-27.32-11.09-40.67-17.27-8.38-9.49-8.5-18.44-19.02-27.34-22-18.61-66.96-28.83-94.06-18.19-9.91,3.89-40.21,28.51-47.09,37.2-13.46,16.99-5.27,29.36,5.44,45.09,11.92,17.48,31.44,35.68,54.06,24.98,19.55-9.25,20.22-38.63,21.85-57.18l3.94-13.43c-1.58,22.88-1.08,54.72-21.15,69.98-20.69,15.74-44.34-.73-57.21-18.46-4.45-6.14-7.15-12.91-11.78-18.83-20,14.98-34.96,24.41-60.26,28.14-75.56,11.15-142.87-24.02-216.77-20.83-22.98.99-44.31,7.25-66.64,11.32-49.12,8.96-90.2,6.18-133.66-19.53-10.13-5.99-18.95-13.93-29.37-19.16-3.4.02-2.67,4.53-2.47,6.73,2.14,23.5,47.71,44.42,67.56,50.46,24.67,7.5,48.94,7.71,74.55,7.11-7.23,8.28-13.97,17.97-17.17,28.65-2.82,9.4-2.22,20.96-11.78,27.2-12.19,7.95-26.07-3.27-38.44,11.08-13.66,15.84-17.02,24.09-37.97,33.68-11.84,5.42-36.82,7.68-38.54,23.71-1.61,15.01,19.44,14.73,29.49,13.6,27.06-3.03,41.91-18.74,62.76-32.06,5.74-3.67,6.52.6,3.18,5.29-8.54,12-30.36,16.95-26.91,33.26,3.92,18.5,32.2,4.03,41.57-2.79,8.76-6.38,12.77-15.38,20.09-21.01,8.09-6.22,18.2-3,27.93-3.67,11.6-.8,26.26-4.52,36.73-9.62,12.46-6.07,19.9-16.26,34.92-17.76,57.52-5.74,129.92,43.87,185.92,58.48,16.84,4.39,33.27,6.66,49.71,6.86-1.03,1.84-1.63,3.96-1.63,6.25,0,.78.09,1.56.23,2.32-.25,7.42,1.88,14.69,5.91,20.95,4.5,6.99,13.66,11.53,19.55,18.38,5.13,5.98,7.7,13.53,15.38,17.28,8.05,3.93,38.97,5.23,46.45,1.41,6.76-3.45,4.66-11.44,1.77-16.98-5.49-10.53-22.34-11.13-29.33-20.19-4.75-6.16-6.4-18.33-6.8-27.31.56-1.16,1.04-2.39,1.4-3.7.71-2.56,1.48-2.89,3.44-6.04.68-1.09,1.24-2.21,1.72-3.36,17.48,13.02,43.75,11.75,65.34,15.33,22.35,3.7,26.39,16.14,43.82,24.67,14.14,6.92,34.01,9.17,46.9-1.66,5.7-4.79,11.02-15.26,5.52-21.81-3.96-4.71-25.84-8.08-33.78-12.04-12.29-6.14-22.06-18.72-34.72-25.34-6.8-3.55-28.03-9.14-31.76-13.54-4.57-5.38,1.69-15.12,3.13-21.03,3.81-15.65-3.89-26.74-1.11-42.21,2.69-14.99,21.02-39.41,34.25-46.88,34.06-19.21,68.36,20.69,109.04-13.17,24.92-20.74,6.72-27.44-13.48-37.04Z"/>
</svg>