<?xml version="1.0" encoding="UTF-8"?>
<svg id="Layer_1" xmlns="http://www.w3.org/2000/svg" version="1.1" viewBox="0 0 84.1 129.4">
  <!-- Generator: Adobe Illustrator 29.3.1, SVG Export Plug-In . SVG Version: 2.1.0 Build 151)  -->
  <defs>
    <style>
      .st0 {
        fill: #a3a3a3;
      }
    </style>
  </defs>
  <path class="st0" d="M7.5,39c.5,0,1-.2,1.4-.6.8-.8.8-2,0-2.8l-1.6-1.6h14.9c1.1,0,2-.9,2-2s-.9-2-2-2H7.3l1.6-1.6c.8-.8.8-2,0-2.8s-2.1-.8-2.8,0l-5,5c-.1.1-.2.3-.3.4h0c0,.2-.1.4-.2.6h0v.5h0c0,.3,0,.4.1.6h0c0,.2.2.3.3.4h0c0,0,5,5.1,5,5.1.4.4.9.6,1.4.6h0v.2Z"/>
  <path class="st0" d="M48,34h14.9l-1.6,1.6c-.8.8-.8,2,0,2.8s.9.6,1.4.6,1-.2,1.4-.6l5-5h0c0-.2.2-.4.3-.5h0c0-.2,0-.3,0-.5h0v-.6h0c0-.2,0-.3-.2-.5h0c0-.2-.2-.4-.3-.5l-5-5c-.8-.8-2-.8-2.8,0s-.8,2,0,2.8l1.6,1.6h-14.9c-1.1,0-2,.9-2,2s.9,2,2,2h0v-.2Z"/>
  <path class="st0" d="M75.2,55.7c-2.4,0-4.5,1.1-5.9,2.9-.2-3.8-3.1-7-6.8-7.3h-.7c-2,0-3.9.8-5.3,2.2-.2.2-.4.4-.6.7-.2-3.8-3.1-6.9-6.8-7.3h-.7c-2,0-3.9.8-5.3,2.2-.2.2-.4.4-.6.7v-17c0-3.9-3-7.3-6.8-7.7h-.7c-2,0-3.9.8-5.3,2.2-1.4,1.4-2.2,3.3-2.2,5.3v53.5l-14.1-6.9c-.4-.2-2.7-1.3-5.1-1.3s-3.6.7-4.8,2c-1.4,1.4-2.1,3.3-2.1,5.3s.8,3.9,2.2,5.3l29.7,29.8c.8.8,8.4,7.9,21.4,7.9h1.8c14.4,0,26.2-11.7,26.2-26.2v-38.6c0-4.1-3.4-7.5-7.5-7.5h0v-.2Z"/>
</svg>